<?xml version="1.0" encoding="utf-8"?>
<!-- Generator: Adobe Illustrator 17.1.0, SVG Export Plug-In . SVG Version: 6.00 Build 0)  -->
<!DOCTYPE svg PUBLIC "-//W3C//DTD SVG 1.1//EN" "http://www.w3.org/Graphics/SVG/1.1/DTD/svg11.dtd">
<svg version="1.1" id="Capa_1" xmlns="http://www.w3.org/2000/svg" xmlns:xlink="http://www.w3.org/1999/xlink" x="0px" y="0px"
	 viewBox="0 0 512 512" enable-background="new 0 0 512 512" xml:space="preserve">
<g>
	<path fill="#E0EEF0" d="M437,75C388.7,26.6,324.4,0,256,0C187.6,0,123.3,26.6,75,75S0,187.6,0,256c0,68.4,26.6,132.7,75,181
		c48.4,48.4,112.6,75,181,75c68.4,0,132.7-26.6,181-75c48.4-48.4,75-112.6,75-181C512,187.6,485.4,123.3,437,75z M412.7,256
		c0,86.4-70.3,156.7-156.7,156.7S99.3,342.4,99.3,256S169.6,99.3,256,99.3S412.7,169.6,412.7,256z M420.6,91.4
		c4.3,4.3,8.4,8.7,12.3,13.3l-37.5,37.5C362.3,101.9,312.1,76,256,76c-5.9,0-11.7,0.3-17.5,0.8v-53c5.8-0.4,11.6-0.6,17.5-0.6
		C318.2,23.3,376.6,47.5,420.6,91.4z"/>
</g>
</svg>
