<?xml version="1.0" encoding="UTF-8" standalone="no"?><!DOCTYPE svg PUBLIC "-//W3C//DTD SVG 1.1//EN" "http://www.w3.org/Graphics/SVG/1.1/DTD/svg11.dtd"><svg width="100%" height="100%" viewBox="0 0 103 105" version="1.1" xmlns="http://www.w3.org/2000/svg" xmlns:xlink="http://www.w3.org/1999/xlink" xml:space="preserve" style="fill-rule:evenodd;clip-rule:evenodd;stroke-linecap:round;stroke-linejoin:round;stroke-miterlimit:1.5;"><g><g><path d="M17.723,23.928l40.692,14.572l0,36l-40.692,14.572c8.805,-5.734 14.881,-18.171 14.881,-32.572c0,-14.401 -6.076,-26.838 -14.881,-32.572Z" style="fill:url(#_Linear1);"/><path d="M17.37,20.619l0.006,0.001c2.061,0.285 4.018,1.421 5.83,3.308l0.004,0.004c5.558,5.736 9.394,18.171 9.394,32.568c0,14.401 -3.838,26.838 -9.398,32.572l-0.006,0.006c-1.769,1.875 -3.733,3.038 -5.83,3.303l-0.21,0.119l0,-0.096l-0.858,0.096c-8.997,0 -16.302,-16.131 -16.302,-36c0,-19.869 7.305,-36 16.302,-36l0.96,0.107l-0.102,-0.011l0,-0.096l0.21,0.119Z" style="fill:url(#_Linear2);"/><path d="M16.302,27.7c-7.198,0 -13.042,12.905 -13.042,28.8c0,15.895 5.844,28.8 13.042,28.8l0.858,-0.096l0.005,0c6.785,-0.924 12.178,-13.434 12.178,-28.704c0,-15.274 -5.395,-27.786 -12.183,-28.704l-0.858,-0.096Z" style="fill:#81007e;"/><path d="M19.019,70.9c-3.599,0 -6.521,-6.452 -6.521,-14.4c0,-7.948 2.922,-14.4 6.521,-14.4l0.858,0.191l0.002,0.001c3.207,0.898 5.661,6.925 5.661,14.208c0,7.285 -2.455,13.313 -5.663,14.209l-0.858,0.191Z" style="fill:#9a0598;"/></g><g><g><g><path d="M58.415,2.5l41.585,50" style="fill:none;stroke:url(#_Linear3);stroke-width:5px;"/><path d="M58.415,52.5l41.585,-50" style="fill:none;stroke:url(#_Linear4);stroke-width:5px;"/></g><rect x="58.415" y="2.5" width="41.585" height="50" style="fill:none;stroke:#ac00a9;stroke-width:5px;"/></g><g><g><path d="M58.415,52.5l41.585,50" style="fill:none;stroke:url(#_Linear5);stroke-width:5px;"/><path d="M58.415,102.5l41.585,-50" style="fill:none;stroke:url(#_Linear6);stroke-width:5px;"/></g><rect x="58.415" y="52.5" width="41.585" height="50" style="fill:none;stroke:#ac00a9;stroke-width:5px;"/></g></g></g><defs><linearGradient id="_Linear1" x1="0" y1="0" x2="1" y2="0" gradientUnits="userSpaceOnUse" gradientTransform="matrix(-1.24775e-14,72,-50.2642,-9.78738e-15,33.283,20.5)"><stop offset="0" style="stop-color:#7c007a;stop-opacity:1"/><stop offset="0.49" style="stop-color:#cb00b6;stop-opacity:1"/><stop offset="1" style="stop-color:#81006f;stop-opacity:1"/></linearGradient><linearGradient id="_Linear2" x1="0" y1="0" x2="1" y2="0" gradientUnits="userSpaceOnUse" gradientTransform="matrix(30.8878,0,0,51.84,0,56.5)"><stop offset="0" style="stop-color:#b900b6;stop-opacity:1"/><stop offset="1" style="stop-color:#ff00db;stop-opacity:1"/></linearGradient><linearGradient id="_Linear3" x1="0" y1="0" x2="1" y2="0" gradientUnits="userSpaceOnUse" gradientTransform="matrix(41.5849,0,0,50,58.4151,27.5)"><stop offset="0" style="stop-color:#6f006d;stop-opacity:1"/><stop offset="0.51" style="stop-color:#cb0fc6;stop-opacity:1"/><stop offset="1" style="stop-color:#57005a;stop-opacity:1"/></linearGradient><linearGradient id="_Linear4" x1="0" y1="0" x2="1" y2="0" gradientUnits="userSpaceOnUse" gradientTransform="matrix(41.5849,0,0,50,58.4151,27.5)"><stop offset="0" style="stop-color:#6f006d;stop-opacity:1"/><stop offset="0.51" style="stop-color:#cb0fc6;stop-opacity:1"/><stop offset="1" style="stop-color:#57005a;stop-opacity:1"/></linearGradient><linearGradient id="_Linear5" x1="0" y1="0" x2="1" y2="0" gradientUnits="userSpaceOnUse" gradientTransform="matrix(41.5849,0,0,50,58.4151,77.5)"><stop offset="0" style="stop-color:#6f006d;stop-opacity:1"/><stop offset="0.51" style="stop-color:#cb0fc6;stop-opacity:1"/><stop offset="1" style="stop-color:#57005a;stop-opacity:1"/></linearGradient><linearGradient id="_Linear6" x1="0" y1="0" x2="1" y2="0" gradientUnits="userSpaceOnUse" gradientTransform="matrix(41.5849,0,0,50,58.4151,77.5)"><stop offset="0" style="stop-color:#6f006d;stop-opacity:1"/><stop offset="0.51" style="stop-color:#cb0fc6;stop-opacity:1"/><stop offset="1" style="stop-color:#57005a;stop-opacity:1"/></linearGradient></defs></svg>