<?xml version="1.0" encoding="UTF-8" standalone="no"?><!DOCTYPE svg PUBLIC "-//W3C//DTD SVG 1.1//EN" "http://www.w3.org/Graphics/SVG/1.1/DTD/svg11.dtd"><svg width="100%" height="100%" viewBox="0 0 103 103" version="1.1" xmlns="http://www.w3.org/2000/svg" xmlns:xlink="http://www.w3.org/1999/xlink" xml:space="preserve" style="fill-rule:evenodd;clip-rule:evenodd;stroke-linejoin:round;stroke-miterlimit:1.41421;"><path d="M40.545,84.329l-0.256,11.871l-8.526,2.33l-0.484,-25.017c1.72,0.607 7.495,10.523 9.266,10.816Z" style="fill:#d3d1cd;fill-rule:nonzero;"/><path d="M40.29,96.199l-8.91,-0.192l-0.1,4.644l8.91,0.192l0.1,-4.644Z" style="fill:#726d65;"/><path d="M70.506,77.198l-0.419,19.431l-8.948,3.277l-0.841,-24.125c2.126,-1.073 8.652,2.66 10.165,1.366l0.043,0.051Z" style="fill:#d3d1cd;fill-rule:nonzero;"/><path d="M70.086,96.629l-8.873,-0.191l-0.105,4.856l8.873,0.192l0.105,-4.857Z" style="fill:#726d65;"/><path d="M16.743,79.185c-3.305,6.356 -12.182,6.428 -12.182,6.428c0,0 5.852,-4.724 1.816,-16.225c-4.039,-11.5 -1.342,-31.986 12.186,-31.694c8.767,0.189 11.333,6.707 12.053,11.27c-0.517,-0.036 -17.082,26.455 -13.562,29.942l-0.311,0.279Z" style="fill:#fcacdf;fill-rule:nonzero;"/><path d="M11.917,65.054c-0.426,5.405 1.617,10.365 5.137,13.852l-0.311,0.279c-3.305,6.356 -12.182,6.428 -12.182,6.428c0,0 5.852,-4.724 1.816,-16.225c-0.317,-0.899 -0.59,-1.853 -0.823,-2.849c2.137,-2.049 3.479,-4.87 4.288,-7.178c0.806,-2.31 1.08,-4.107 1.08,-4.107c0.408,-13.752 11.95,-5.071 11.95,-5.071l-0.111,0.151c-5.841,2.555 -10.339,8.293 -10.844,14.72Z" style="fill:#db91c5;fill-rule:nonzero;"/><g><path d="M64.682,96.513l-7.238,-0.156l-0.105,4.856l7.238,0.156l0.105,-4.856Z" style="fill:#847e74;"/><path d="M34.993,96.085l-5.861,-0.126l-0.1,4.644l5.861,0.126l0.1,-4.644Z" style="fill:#847e74;"/></g><path d="M79.737,53.027c-1.33,0.019 -2.702,-0.135 -4.089,-0.485l-0.051,0.203c0.701,1.693 1.271,3.622 1.591,5.68c0.94,6.055 -0.287,13.222 -6.726,18.723c-1.513,1.294 -3.313,2.495 -5.44,3.568l-0.341,15.798l-7.237,-0.157l0.268,-12.449c0,0 -8.466,1.86 -17.168,0.422c-1.77,-0.293 -3.549,-0.722 -5.269,-1.329l-0.282,13.085l-5.861,-0.126l0.239,-11.084c0,0 -1.993,-0.431 -4.6,-1.508c-2.962,-0.807 -5.607,-2.367 -7.718,-4.461c-3.52,-3.487 -5.563,-8.447 -5.137,-13.852c0.675,-8.602 8.502,-15.966 17.129,-16.129c0.529,-0.01 1.053,0.003 1.57,0.038c2.887,0.201 5.577,1.099 7.904,2.525c0.886,0.541 1.719,1.158 2.49,1.841c1.719,1.522 6.003,-17.696 6.277,-30.365c0.273,-12.669 13.35,-9.675 13.35,-9.675c0.036,-1.665 0.272,-3.05 0.637,-4.205c1.77,-5.593 6.589,-5.779 6.589,-5.779l-0.206,9.571l0.011,0c0.495,-9.735 7.218,-10.022 7.218,-10.022l-0.22,10.219c-3.129,1.451 6.247,6.823 6.247,6.823l0.002,0.003c0.908,1.414 1.864,2.865 2.859,4.33c0.832,1.224 1.689,2.46 2.568,3.69c0,0 0,0.002 0.003,0.005c0.053,0.073 0.106,0.149 0.159,0.222c0.997,1.389 2.02,2.766 3.064,4.12c7.981,10.338 0.365,20.624 -9.83,20.76Z" style="fill:#edeae4;fill-rule:nonzero;"/><path d="M61.273,9.085c-0.181,0.569 -0.328,1.193 -0.437,1.879c-0.112,0.706 -0.182,1.481 -0.2,2.326c0,0 -10.901,1.157 -11.174,13.826c-0.273,12.669 7.33,21.511 -1.705,26.792c-0.065,0.038 -0.129,0.08 -0.198,0.118c-0.091,0.053 -0.184,0.104 -0.28,0.152c-0.561,0.287 -1.157,0.467 -1.762,0.544c-1.599,0.209 -3.26,-0.288 -4.508,-1.392c-0.771,-0.683 -1.604,-1.3 -2.49,-1.841c7.706,-4.48 1.009,-11.607 3.36,-28.337c2.399,-17.059 19.394,-14.067 19.394,-14.067Z" style="fill:#fcacdf;fill-rule:nonzero;"/><g><path d="M37.562,83.696c15.865,0.342 20.323,-7.812 20.323,-7.812l-0.173,8.023c0.001,0 -11.737,3.719 -20.15,-0.211Z" style="fill:#d3d1cd;fill-rule:nonzero;"/><path d="M19.547,67.274c-0.26,12.06 9.825,17.601 9.825,17.601c0,0 -1.994,-0.431 -4.601,-1.507c-2.961,-0.808 -5.606,-2.367 -7.717,-4.462c-3.52,-3.487 -5.563,-8.447 -5.137,-13.852c0.674,-8.602 8.502,-15.966 17.129,-16.129c0.529,-0.01 1.053,0.003 1.57,0.039c0,0 -10.795,5.593 -11.069,18.31Z" style="fill:#d3d1cd;fill-rule:nonzero;"/></g><g><path d="M81.909,42.213c-0.717,-0.015 -1.302,-0.628 -1.287,-1.344c0.016,-0.715 0.63,-1.302 1.344,-1.287c0.716,0.015 1.302,0.628 1.287,1.344c-0.014,0.717 -0.625,1.302 -1.344,1.287Z" style="fill:#666;fill-rule:nonzero;"/><path d="M91.188,40.836c-0.716,-0.016 -1.303,-0.629 -1.288,-1.344c0.016,-0.704 0.605,-1.283 1.31,-1.287c0.706,-0.004 1.301,0.574 1.321,1.278c0.022,0.74 -0.604,1.369 -1.343,1.353Z" style="fill:#666;fill-rule:nonzero;"/><path d="M67.306,29.96c-0.378,-0.457 -0.543,-1.053 -0.542,-1.666c0.006,-0.613 0.191,-1.246 0.533,-1.8c0.341,-0.556 0.837,-1.035 1.427,-1.373c0.589,-0.34 1.272,-0.536 1.955,-0.567c0.682,-0.031 1.38,0.103 1.998,0.39c0.618,0.285 1.155,0.717 1.544,1.241c0.391,0.523 0.63,1.138 0.691,1.748c0.054,0.612 -0.059,1.221 -0.398,1.71c-0.743,-0.905 -1.423,-1.315 -2.042,-1.547c-0.621,-0.225 -1.131,-0.27 -1.648,-0.256c-0.517,0.028 -1.024,0.118 -1.623,0.397c-0.598,0.286 -1.238,0.756 -1.895,1.723Z" style="fill:#666;fill-rule:nonzero;"/><path d="M86.504,28.148c-0.269,-0.173 -0.527,-0.295 -0.775,-0.388c-0.621,-0.226 -1.133,-0.27 -1.649,-0.257c-0.518,0.029 -1.025,0.119 -1.623,0.397c-0.598,0.286 -1.238,0.757 -1.895,1.723c-0.378,-0.456 -0.543,-1.051 -0.543,-1.666c0.009,-0.611 0.191,-1.246 0.535,-1.8c0.341,-0.556 0.836,-1.035 1.427,-1.373c0.542,-0.311 1.167,-0.504 1.793,-0.554c0.831,1.225 1.689,2.461 2.568,3.69c0,0 0,0.003 0.002,0.005c0.053,0.073 0.106,0.149 0.16,0.223Z" style="fill:#666;fill-rule:nonzero;"/></g><path d="M66.548,37.102l-3.362,-0.073c-0.908,-0.02 -1.629,-0.772 -1.609,-1.68c0.02,-0.908 0.772,-1.629 1.68,-1.609l3.362,0.072c0.908,0.02 1.629,0.772 1.609,1.68c-0.02,0.909 -0.772,1.629 -1.68,1.61Z" style="fill:#e58376;fill-rule:nonzero;"/><g><path d="M57.471,39.212c0.051,0.099 0.421,0.823 1.101,1.949c-0.44,-0.634 -0.812,-1.285 -1.101,-1.949Z" style="fill:#d3d1cd;fill-rule:nonzero;"/><path d="M77.188,58.425c-9.866,-4.22 -16.193,-13.261 -18.612,-17.257c4.685,6.741 17.021,11.577 17.021,11.577c0.701,1.693 1.271,3.622 1.591,5.68Z" style="fill:#d3d1cd;fill-rule:nonzero;"/></g><g><path d="M67.656,12.877l-3.918,-0.084c0,0 1.771,-8.471 4.124,-9.487l-0.206,9.571Z" style="fill:#b5b4b4;fill-rule:nonzero;"/><path d="M74.679,12.425l-3.918,-0.084c0,0 1.771,-8.471 4.124,-9.486l-0.206,9.57Z" style="fill:#b5b4b4;fill-rule:nonzero;"/></g><path d="M60.836,10.964c-0.112,0.706 -0.182,1.481 -0.2,2.326c0,0 -10.901,1.157 -11.174,13.826c-0.273,12.669 7.33,21.511 -1.705,26.792c-0.065,0.038 -0.129,0.08 -0.198,0.118c-0.091,0.053 -0.184,0.104 -0.28,0.152c-0.561,0.287 -1.157,0.467 -1.762,0.544c8.386,-10.156 0.181,-12.373 0.527,-28.421c0.297,-13.767 10.837,-15.262 14.792,-15.337Z" style="fill:#db91c5;fill-rule:nonzero;"/><path d="M98.381,2.076l-6.38,6.507l-1.688,1.725l-5.146,5.25l-1.476,1.506l-2.779,2.834l-0.843,0.861c-0.299,0.303 -0.627,0.561 -0.98,0.771c-0.513,0.307 -1.075,0.512 -1.65,0.614c-1.169,0.205 -2.397,-0.021 -3.422,-0.706c-0.156,-0.104 -0.305,-0.217 -0.449,-0.341c-0.035,-0.029 -0.067,-0.058 -0.101,-0.09c-2.574,-2.288 -1.931,-6.482 1.197,-7.932l2.176,-1.009l1.955,-0.907l5.378,-2.495l2.353,-1.09l4.066,-1.886l2.083,-0.967l5.706,-2.645Z" style="fill:#f9d780;fill-rule:nonzero;"/><path d="M98.381,2.075l-17.468,17.822l-0.843,0.861c-1.618,1.65 -4.177,1.93 -6.052,0.679l24.363,-19.362Z" style="fill:#f9e9c7;fill-rule:nonzero;"/><g><path d="M85.167,15.558l-1.476,1.506c-0.859,-3.282 -0.229,-6.353 0.482,-8.4l2.353,-1.09c-0.601,1.237 -1.903,4.434 -1.359,7.984Z" style="fill:#e0be70;fill-rule:nonzero;"/><path d="M92.675,4.721c-0.337,1.068 -0.633,2.4 -0.674,3.862l-1.688,1.725c-0.181,-1.684 -0.018,-3.267 0.279,-4.621l2.083,-0.966Z" style="fill:#e0be70;fill-rule:nonzero;"/><path d="M79.089,21.53c-0.513,0.307 -1.075,0.512 -1.65,0.614c-1.148,-3.943 -0.976,-7.603 -0.598,-10.078l1.954,-0.907c-0.444,2.162 -0.911,6.118 0.294,10.371Z" style="fill:#e0be70;fill-rule:nonzero;"/></g></svg>